<svg id="图层_1" data-name="图层 1" xmlns="http://www.w3.org/2000/svg" viewBox="0 0 1375.88 378.25"><defs><style>.cls-1,.cls-4{fill:#fff;}.cls-2,.cls-3{fill:#6372c1;}.cls-2{stroke:#6372c1;}.cls-2,.cls-4{stroke-miterlimit:10;stroke-width:3px;}.cls-4{stroke:#fff;}</style></defs><rect class="cls-1" width="645.22" height="378.25"/><rect class="cls-2" x="160.31" y="136.6" width="1.6" height="70.63"/><path class="cls-2" d="M162.32,207.64h-2.41V136.2h2.41Zm-1.6-.81h.79V137h-.79Z" transform="translate(0)"/><rect class="cls-2" x="249.85" y="136.31" width="1.6" height="70.63"/><path class="cls-2" d="M251.86,207.35h-2.41V135.91h2.41Zm-1.6-.81h.79V136.72h-.79Z" transform="translate(0)"/><rect class="cls-2" x="296.85" y="136.31" width="1.6" height="70.63"/><path class="cls-2" d="M298.86,207.35h-2.41V135.91h2.41Zm-1.6-.81h.79V136.72h-.79Z" transform="translate(0)"/><rect class="cls-2" x="395.14" y="136.57" width="1.6" height="70.63"/><path class="cls-2" d="M397.15,207.61h-2.41V136.16h2.41Zm-1.6-.81h.79V137h-.79Z" transform="translate(0)"/><polygon class="cls-2" points="431.2 207.06 429.6 207.06 396.02 136.43 397.62 136.43 431.2 207.06"/><path class="cls-2" d="M431.85,207.47h-2.51l-.11-.23L395.37,136h2.51l.11.23Zm-2-.81h.7l-33.2-69.83h-.7Z" transform="translate(0)"/><rect class="cls-2" x="430.24" y="136.56" width="1.6" height="70.63"/><path class="cls-2" d="M432.25,207.6h-2.41V136.16h2.41Zm-1.6-.81h.79V137h-.79Z" transform="translate(0)"/><rect class="cls-2" x="440.01" y="136.88" width="1.6" height="70.63"/><path class="cls-2" d="M442,207.92H439.6V136.48H442Zm-1.61-.81h.8V137.29h-.8Z" transform="translate(0)"/><polygon class="cls-2" points="195.6 207.04 194.22 207.04 216.07 136.41 217.45 136.41 195.6 207.04"/><path class="cls-2" d="M195.88,207.42h-2.17l.15-.49L215.79,136H218l-.15.49Zm-1.15-.75h.59l21.62-69.89h-.59Z" transform="translate(0)"/><polygon class="cls-2" points="240.02 206.95 241.4 206.95 219.55 136.31 218.16 136.31 240.02 206.95"/><path class="cls-2" d="M241.91,207.32h-2.17l-.08-.26-22-71.12h2.16l.09.26Zm-1.61-.75h.59l-21.62-69.88h-.6Z" transform="translate(0)"/><polygon class="cls-2" points="341.23 207.06 339.85 207.06 361.81 136.43 363.2 136.43 341.23 207.06"/><path class="cls-2" d="M341.51,207.44h-2.18l22.2-71.39h2.18Zm-1.15-.75h.6l21.73-69.88h-.6Z" transform="translate(0)"/><polygon class="cls-2" points="385.61 207.2 387 207.2 365.03 136.57 363.64 136.57 385.61 207.2"/><path class="cls-2" d="M387.51,207.58h-2.18l-22.2-71.39h2.18Zm-1.63-.75h.6L364.75,137h-.6Z" transform="translate(0)"/><rect class="cls-2" x="160.46" y="136.41" width="35.32" height="1.6"/><path class="cls-2" d="M196.19,138.42H160.06V136h36.13Zm-35.32-.81h34.51v-.79H160.87Z" transform="translate(0)"/><rect class="cls-2" x="296.85" y="205.63" width="35.32" height="1.6"/><path class="cls-2" d="M332.57,207.64H296.45v-2.42h36.12Zm-35.31-.81h34.5V206h-34.5Z" transform="translate(0)"/><path class="cls-2" d="M249.84,136.86l1-.17c.64-.11,1.57-.26,2.76-.37s2.66-.22,4.34-.25a50.66,50.66,0,0,1,5.69.24,40.26,40.26,0,0,1,6.73,1.27,24.41,24.41,0,0,1,7.06,3.31l.82.64.1.08.13.11.16.15.34.3c.44.4.88.77,1.36,1.25A34.36,34.36,0,0,1,283,146.3a20,20,0,0,1,3.7,6.93,15,15,0,0,1,.55,3.85c0,.63,0,1.25,0,1.84l0,.48,0,.47c0,.36-.07.65-.12,1a25.29,25.29,0,0,1-2.24,6.87,24,24,0,0,1-3.88,5.75,21.87,21.87,0,0,1-5,4.11,24.17,24.17,0,0,1-5.11,2.32,27.19,27.19,0,0,1-4.24,1c-1.2.15-2.13.22-2.77.24l-1,0,0-.25.95-.12a25.8,25.8,0,0,0,2.67-.45,27.12,27.12,0,0,0,4-1.2,23.1,23.1,0,0,0,4.65-2.46,21.22,21.22,0,0,0,4.4-4.07,23.57,23.57,0,0,0,3.35-5.5,24.41,24.41,0,0,0,1.82-6.46,17.42,17.42,0,0,0-.56-6.8,16.84,16.84,0,0,0-1.39-3.21,23.15,23.15,0,0,0-2-2.94,34.67,34.67,0,0,0-5-5,22.23,22.23,0,0,0-6.17-3.15,41.53,41.53,0,0,0-6.22-1.55,65.27,65.27,0,0,0-9.68-.86c-2.35,0-3.69,0-3.69,0Z" transform="translate(0)"/><path class="cls-2" d="M262.69,181.23l-.06-.45,1.07-.13c.62-.07,1.51-.22,2.66-.46a26.44,26.44,0,0,0,4-1.19,23.08,23.08,0,0,0,4.62-2.45,21.11,21.11,0,0,0,4.39-4.05,24.19,24.19,0,0,0,5.14-11.9,17.23,17.23,0,0,0-.55-6.76,16.9,16.9,0,0,0-1.39-3.19,22.2,22.2,0,0,0-2-2.92,33.79,33.79,0,0,0-5-5,21.78,21.78,0,0,0-6.13-3.13,39.06,39.06,0,0,0-6.21-1.55,64.67,64.67,0,0,0-9.66-.86c-2.32,0-3.67.05-3.69.05h-.1l0-.45,1.06-.19c.61-.1,1.55-.26,2.77-.37s2.69-.22,4.35-.25a50.17,50.17,0,0,1,5.7.24,39.23,39.23,0,0,1,6.75,1.28,24,24,0,0,1,7.09,3.33c.29.21.56.42.83.63l.4.35.33.3.38.33c.31.28.64.57,1,.93a30.69,30.69,0,0,1,2.66,2.88,20,20,0,0,1,3.72,7,14.67,14.67,0,0,1,.56,3.87q0,.94,0,1.86l-.06.94c0,.36-.07.65-.12.95v0a25.56,25.56,0,0,1-2.25,6.9,23.7,23.7,0,0,1-3.9,5.77,22.11,22.11,0,0,1-5,4.14,24.62,24.62,0,0,1-5.13,2.33,28.8,28.8,0,0,1-4.25.95c-1.2.14-2.14.22-2.79.24Zm.19-.26v0l.88,0c.65,0,1.58-.09,2.77-.23a28.53,28.53,0,0,0,4.22-1,23.88,23.88,0,0,0,5.08-2.31,22.16,22.16,0,0,0,5-4.1,23.69,23.69,0,0,0,3.86-5.71,24.73,24.73,0,0,0,2.23-6.85v0c0-.3.08-.58.11-.93l.06-.94c0-.6,0-1.22,0-1.84a14.3,14.3,0,0,0-.55-3.82,19.89,19.89,0,0,0-3.68-6.89,31.74,31.74,0,0,0-2.65-2.87c-.34-.35-.66-.63-1-.91l-.38-.34-.72-.64c-.26-.21-.54-.42-.82-.63a24,24,0,0,0-7-3.29,39.92,39.92,0,0,0-6.71-1.27c-1.95-.17-3.47-.25-4.78-.25h-.89c-1.66,0-3.12.11-4.34.25s-2.15.26-2.75.36L250,137v0c.36,0,1.63-.08,3.59-.05a65,65,0,0,1,9.7.86,40.54,40.54,0,0,1,6.24,1.56,22,22,0,0,1,6.19,3.17,33.8,33.8,0,0,1,5,5.06,22.66,22.66,0,0,1,2,2.95,16.1,16.1,0,0,1,2,10.08,24.76,24.76,0,0,1-1.83,6.49,23.68,23.68,0,0,1-3.37,5.53,21.22,21.22,0,0,1-4.42,4.09,23.59,23.59,0,0,1-4.67,2.48,29.47,29.47,0,0,1-4,1.2,26.91,26.91,0,0,1-2.69.45Z" transform="translate(0)"/><path class="cls-2" d="M352.6,174.38l.84.58c.53.37,1.29.87,2.21,1.4.46.26,1,.52,1.51.78s1.12.49,1.72.71l.91.28.95.22,1,.12.49,0,.24,0h.14c.06,0-.06,0-.05,0h.11c.35,0,.75,0,1.06-.07s.6-.06.92-.14a14.32,14.32,0,0,0,1.87-.52,16.71,16.71,0,0,0,1.72-.71c.54-.25,1.06-.51,1.52-.77.93-.52,1.71-1,2.24-1.36l.85-.56a7.22,7.22,0,0,1-.55.87,14,14,0,0,1-5.05,4.27,10.79,10.79,0,0,1-2.13.8,11.45,11.45,0,0,1-1.22.24c-.41.05-.74.05-1.12.08h-.35l-.3,0-.61,0c-.4-.05-.79-.14-1.18-.21s-.75-.21-1.11-.34-.71-.27-1-.44a12.49,12.49,0,0,1-3.23-2.25,12.73,12.73,0,0,1-1.78-2.08A6.62,6.62,0,0,1,352.6,174.38Z" transform="translate(0)"/><path class="cls-2" d="M466.83,217.2s-1,.85-2.93,2.28a95.36,95.36,0,0,1-8.78,5.75,127.72,127.72,0,0,1-14.65,7.3,124.6,124.6,0,0,1-73.53,7.26,141.35,141.35,0,0,1-28.79-9.19l-3.54-1.55c-1.18-.54-2.31-1.15-3.47-1.73l-3.48-1.75-1.74-.88-1.68-1-6.77-3.9-6.56-4.25c-2.22-1.37-4.26-3-6.37-4.5l-6.23-4.58-6.17-4.58-6.22-4.31a248.08,248.08,0,0,0-25.37-15.18A169.51,169.51,0,0,0,235,171.88a117.47,117.47,0,0,0-24.21-5,93.15,93.15,0,0,0-20.91.38,69.84,69.84,0,0,0-15.66,4,56.7,56.7,0,0,0-9.4,4.53,27.76,27.76,0,0,0-3,2.09,27.28,27.28,0,0,1,2.93-2.27,51.59,51.59,0,0,1,9.22-5.07,71.66,71.66,0,0,1,15.71-4.74,88.31,88.31,0,0,1,21.34-1.2c15.72.88,33.64,6.08,51.16,14.71a231.89,231.89,0,0,1,26,15.14l6.36,4.36,6.19,4.56,6.22,4.53c2.08,1.48,4.1,3,6.27,4.39l6.4,4.2,6.61,3.84,1.64,1,1.7.86,3.38,1.73c1.13.56,2.24,1.17,3.38,1.7l3.45,1.53a145.34,145.34,0,0,0,27.94,9.28,126.32,126.32,0,0,0,52,.51,136.08,136.08,0,0,0,20.19-5.71,126.29,126.29,0,0,0,14.82-6.6c4-2.11,7-3.93,9-5.25S466.83,217.2,466.83,217.2Z" transform="translate(0)"/><path class="cls-2" d="M439.9,136.07l1.29.08c.84.06,2.05.09,3.64.26l2.69.43,1.52.25c.52.12,1,.27,1.58.41,1.08.31,2.26.55,3.44,1l3.71,1.4,3.86,1.89c1.29.74,2.58,1.57,3.92,2.39s2.57,1.89,3.83,2.94l1.84,1.69a17.88,17.88,0,0,1,1.8,1.79,37.73,37.73,0,0,1,3.33,4c.52.7,1.06,1.4,1.56,2.13l1.37,2.29a43,43,0,0,1,2.43,4.79,24.67,24.67,0,0,1,1,2.52c.29.85.65,1.69.87,2.56l.65,2.62.32,1.31.19,1.33c.13.89.25,1.77.38,2.65s.09,1.78.15,2.66.08,1.74.08,2.65l-.12,2.57c-.09.87-.19,1.73-.28,2.58s-.28,1.68-.42,2.5a44.14,44.14,0,0,1-2.87,9.22,42.82,42.82,0,0,1-4.22,7.54,44.53,44.53,0,0,1-4.64,5.64,49,49,0,0,1-4.17,3.78l-1.65,1.27-1.28.87-1.06.72,1-.75,1.25-.9,1.62-1.31a47.49,47.49,0,0,0,4.05-3.87A44.31,44.31,0,0,0,477,206.2a42.72,42.72,0,0,0,4-7.54,44.81,44.81,0,0,0,2.57-9.11c.11-.82.27-1.63.34-2.46l.21-2.49c0-.85,0-1.71,0-2.58s-.1-1.7-.15-2.55-.06-1.72-.21-2.57-.29-1.71-.43-2.57l-.22-1.28-.35-1.26-.69-2.52c-.24-.83-.61-1.63-.91-2.45a22.84,22.84,0,0,0-1-2.4,41.44,41.44,0,0,0-2.46-4.55c-.46-.72-.92-1.44-1.37-2.16s-1-1.34-1.55-2a36.72,36.72,0,0,0-3.29-3.72,17.21,17.21,0,0,0-1.76-1.66L468,148.76c-1.24-1-2.51-1.82-3.72-2.7s-2.54-1.5-3.77-2.17l-3.7-1.69L453.25,141c-1.13-.37-2.25-.56-3.27-.83-.51-.12-1-.25-1.49-.35l-1.39-.19-2.45-.34c-1.53-.12-2.78-.12-3.61-.16l-1.29-.05Z" transform="translate(0)"/><rect class="cls-3" x="730.67" width="645.22" height="378.25"/><rect class="cls-4" x="890.98" y="136.6" width="1.6" height="70.63"/><path class="cls-4" d="M893,207.64h-2.42V136.2H893Zm-1.61-.81h.8V137h-.8Z" transform="translate(0)"/><rect class="cls-4" x="980.52" y="136.31" width="1.6" height="70.63"/><path class="cls-4" d="M982.53,207.35h-2.41V135.91h2.41Zm-1.6-.81h.79V136.72h-.79Z" transform="translate(0)"/><rect class="cls-4" x="1027.52" y="136.31" width="1.6" height="70.63"/><path class="cls-4" d="M1029.53,207.35h-2.42V135.91h2.42Zm-1.61-.81h.8V136.72h-.8Z" transform="translate(0)"/><rect class="cls-4" x="1125.81" y="136.57" width="1.6" height="70.63"/><path class="cls-4" d="M1127.82,207.61h-2.42V136.16h2.42Zm-1.61-.81h.8V137h-.8Z" transform="translate(0)"/><polygon class="cls-4" points="1161.87 207.06 1160.27 207.06 1126.68 136.43 1128.29 136.43 1161.87 207.06"/><path class="cls-4" d="M1162.51,207.47H1160l-.11-.23L1126,136h2.51l.1.23Zm-2-.81h.7L1128,136.83h-.7Z" transform="translate(0)"/><rect class="cls-4" x="1160.91" y="136.56" width="1.6" height="70.63"/><path class="cls-4" d="M1162.92,207.6h-2.42V136.16h2.42Zm-1.61-.81h.8V137h-.8Z" transform="translate(0)"/><rect class="cls-4" x="1170.68" y="136.88" width="1.6" height="70.63"/><path class="cls-4" d="M1172.69,207.92h-2.42V136.48h2.42Zm-1.61-.81h.8V137.29h-.8Z" transform="translate(0)"/><polygon class="cls-4" points="926.26 207.04 924.88 207.04 946.74 136.41 948.12 136.41 926.26 207.04"/><path class="cls-4" d="M926.54,207.42h-2.17l.16-.49L946.46,136h2.17l-.15.49Zm-1.15-.75h.6l21.62-69.89H947Z" transform="translate(0)"/><polygon class="cls-4" points="970.68 206.95 972.07 206.95 950.21 136.31 948.83 136.31 970.68 206.95"/><path class="cls-4" d="M972.58,207.32h-2.17l-.08-.26-22-71.12h2.17l.08.26Zm-1.62-.75h.6l-21.62-69.88h-.6Z" transform="translate(0)"/><polygon class="cls-4" points="1071.9 207.06 1070.51 207.06 1092.48 136.43 1093.87 136.43 1071.9 207.06"/><path class="cls-4" d="M1072.18,207.44H1070l22.2-71.39h2.18Zm-1.16-.75h.6l21.73-69.88h-.59Z" transform="translate(0)"/><polygon class="cls-4" points="1116.27 207.2 1117.66 207.2 1095.69 136.57 1094.31 136.57 1116.27 207.2"/><path class="cls-4" d="M1118.17,207.58H1116l-22.2-71.39H1096Zm-1.62-.75h.6L1095.42,137h-.6Z" transform="translate(0)"/><rect class="cls-4" x="891.13" y="136.41" width="35.32" height="1.6"/><path class="cls-4" d="M926.85,138.42H890.73V136h36.12Zm-35.31-.81H926v-.79h-34.5Z" transform="translate(0)"/><rect class="cls-4" x="1027.52" y="205.63" width="35.32" height="1.6"/><path class="cls-4" d="M1063.24,207.64h-36.13v-2.42h36.13Zm-35.32-.81h34.51V206h-34.51Z" transform="translate(0)"/><path class="cls-4" d="M980.5,136.86l1-.17c.63-.11,1.56-.26,2.76-.37s2.65-.22,4.34-.25a50.76,50.76,0,0,1,5.69.24,40,40,0,0,1,6.72,1.27,24.46,24.46,0,0,1,7.07,3.31c.27.21.55.42.81.64l.11.08.12.11.17.15.33.3c.45.4.89.77,1.36,1.25a31.29,31.29,0,0,1,2.66,2.88,19.83,19.83,0,0,1,3.7,6.93,14.16,14.16,0,0,1,.55,3.85c0,.63,0,1.25,0,1.84l0,.48,0,.47c0,.36-.08.65-.12,1a25.63,25.63,0,0,1-2.24,6.87,24,24,0,0,1-3.89,5.75,21.87,21.87,0,0,1-5,4.11,23.89,23.89,0,0,1-5.1,2.32,27.45,27.45,0,0,1-4.24,1c-1.2.15-2.14.22-2.78.24l-1,0,0-.25,1-.12a26.24,26.24,0,0,0,2.67-.45,26.68,26.68,0,0,0,4-1.2,22.84,22.84,0,0,0,4.65-2.46,21,21,0,0,0,4.41-4.07,23.89,23.89,0,0,0,3.34-5.5,24.43,24.43,0,0,0,1.83-6.46,17.42,17.42,0,0,0-.56-6.8,18.21,18.21,0,0,0-1.39-3.21,24.24,24.24,0,0,0-2-2.94,34.74,34.74,0,0,0-5-5,22.18,22.18,0,0,0-6.16-3.15,42,42,0,0,0-6.23-1.55,65,65,0,0,0-9.67-.86c-2.36,0-3.7,0-3.7,0Z" transform="translate(0)"/><path class="cls-4" d="M993.36,181.23l-.06-.45,1.06-.13c.62-.07,1.52-.22,2.67-.46a26,26,0,0,0,4-1.19,23.16,23.16,0,0,0,4.63-2.45,21.07,21.07,0,0,0,4.38-4.05,23.1,23.1,0,0,0,3.33-5.48,24.26,24.26,0,0,0,1.82-6.42,17,17,0,0,0-.56-6.76,17.49,17.49,0,0,0-1.38-3.19,22.2,22.2,0,0,0-2-2.92,33.79,33.79,0,0,0-5-5,21.85,21.85,0,0,0-6.14-3.13,38.65,38.65,0,0,0-6.2-1.55,64.67,64.67,0,0,0-9.66-.86c-2.32,0-3.68.05-3.69.05h-.11l0-.45,1.06-.19c.6-.1,1.54-.26,2.77-.37s2.69-.22,4.35-.25a50.25,50.25,0,0,1,5.7.24,39.3,39.3,0,0,1,6.74,1.28,24.06,24.06,0,0,1,7.1,3.33c.28.21.56.42.82.63l.4.35.33.3.38.33c.32.28.65.57,1,.93a30.89,30.89,0,0,1,2.67,2.88,20.17,20.17,0,0,1,3.72,7,14.7,14.7,0,0,1,.55,3.87q0,.94,0,1.86l-.05.94c0,.36-.07.65-.12.95v0a25.6,25.6,0,0,1-2.26,6.9,23.7,23.7,0,0,1-3.9,5.77,22.07,22.07,0,0,1-5,4.14,24.86,24.86,0,0,1-5.13,2.33,28.61,28.61,0,0,1-4.26.95c-1.2.14-2.13.22-2.78.24Zm.19-.26v0l.88,0c.65,0,1.57-.09,2.76-.23a28,28,0,0,0,4.22-1,24.18,24.18,0,0,0,5.09-2.31,21.9,21.9,0,0,0,5-4.1,23.44,23.44,0,0,0,3.87-5.71,25.41,25.41,0,0,0,2.23-6.85v0c0-.3.08-.58.11-.93l.06-.94c0-.6,0-1.22,0-1.84a14.72,14.72,0,0,0-.55-3.82,19.89,19.89,0,0,0-3.68-6.89,31.74,31.74,0,0,0-2.65-2.87c-.34-.35-.67-.63-1-.91l-.38-.34-.72-.64L1008,141a24.08,24.08,0,0,0-7-3.29,39.81,39.81,0,0,0-6.7-1.27c-2-.17-3.47-.25-4.78-.25h-.9c-1.65,0-3.11.11-4.33.25s-2.15.26-2.75.36l-.87.16v0c.37,0,1.63-.08,3.6-.05a65,65,0,0,1,9.69.86,40.4,40.4,0,0,1,6.25,1.56,22,22,0,0,1,6.19,3.17,34.28,34.28,0,0,1,5,5.06,23.7,23.7,0,0,1,2,2.95,16.1,16.1,0,0,1,2,10.08,24.41,24.41,0,0,1-1.84,6.49,23.32,23.32,0,0,1-3.36,5.53,21.51,21.51,0,0,1-4.43,4.09,23.59,23.59,0,0,1-4.67,2.48,29.47,29.47,0,0,1-4,1.2,26.81,26.81,0,0,1-2.68.45Z" transform="translate(0)"/><path class="cls-4" d="M1083.27,174.38l.83.58c.53.37,1.29.87,2.22,1.4.46.26,1,.52,1.51.78s1.11.49,1.71.71l.92.28.94.22,1,.12.48,0,.25,0h.14c.06,0-.06,0,0,0h.1c.36,0,.76,0,1.07-.07s.6-.06.92-.14a14.62,14.62,0,0,0,1.86-.52,16.89,16.89,0,0,0,1.73-.71c.54-.25,1.05-.51,1.52-.77.93-.52,1.7-1,2.24-1.36l.85-.56a7.22,7.22,0,0,1-.55.87,13.94,13.94,0,0,1-1.82,2,13.07,13.07,0,0,1-3.23,2.23,11.12,11.12,0,0,1-2.14.8,11,11,0,0,1-1.22.24c-.4.05-.74.05-1.11.08h-.35l-.3,0-.61,0c-.4-.05-.79-.14-1.18-.21s-.75-.21-1.12-.34-.7-.27-1-.44a13.09,13.09,0,0,1-5-4.33A7.1,7.1,0,0,1,1083.27,174.38Z" transform="translate(0)"/><path class="cls-4" d="M1197.49,217.2s-1,.85-2.92,2.28a94.4,94.4,0,0,1-8.79,5.75,126.67,126.67,0,0,1-14.64,7.3,124.6,124.6,0,0,1-73.53,7.26,141.35,141.35,0,0,1-28.79-9.19l-3.55-1.55c-1.17-.54-2.31-1.15-3.47-1.73l-3.47-1.75-1.74-.88-1.69-1-6.77-3.9-6.55-4.25c-2.22-1.37-4.26-3-6.38-4.5l-6.23-4.58-6.16-4.58-6.22-4.31a248.08,248.08,0,0,0-25.37-15.18,170,170,0,0,0-25.53-10.54,117.25,117.25,0,0,0-24.2-5,93.12,93.12,0,0,0-20.91.38,70.08,70.08,0,0,0-15.67,4,56.93,56.93,0,0,0-9.39,4.53,28.76,28.76,0,0,0-3.06,2.09,28.31,28.31,0,0,1,2.94-2.27,51.8,51.8,0,0,1,9.21-5.07,71.76,71.76,0,0,1,15.72-4.74,88.27,88.27,0,0,1,21.34-1.2c15.71.88,33.64,6.08,51.16,14.71a231.89,231.89,0,0,1,26,15.14l6.36,4.36,6.19,4.56,6.22,4.53c2.08,1.48,4.1,3,6.27,4.39l6.4,4.2,6.6,3.84,1.65,1,1.69.86,3.39,1.73c1.13.56,2.24,1.17,3.38,1.7l3.45,1.53a145.34,145.34,0,0,0,27.94,9.28,126.27,126.27,0,0,0,52,.51,135.88,135.88,0,0,0,20.2-5.71,127,127,0,0,0,14.82-6.6c4-2.11,7-3.93,9-5.25S1197.49,217.2,1197.49,217.2Z" transform="translate(0)"/><path class="cls-4" d="M1170.57,136.07l1.28.08c.85.06,2.06.09,3.65.26l2.68.43,1.53.25c.51.12,1,.27,1.58.41,1.08.31,2.25.55,3.44,1l3.71,1.4,3.86,1.89c1.28.74,2.58,1.57,3.92,2.39s2.56,1.89,3.83,2.94l1.84,1.69a17.88,17.88,0,0,1,1.8,1.79,40.31,40.31,0,0,1,3.33,4c.52.7,1,1.4,1.56,2.13L1210,159a44.81,44.81,0,0,1,2.43,4.79c.41.8.63,1.68,1,2.52s.64,1.69.87,2.56l.65,2.62.32,1.31.19,1.33c.12.89.25,1.77.37,2.65a26.35,26.35,0,0,1,.15,2.66c0,.89.09,1.74.09,2.65l-.12,2.57c-.1.87-.19,1.73-.28,2.58s-.28,1.68-.42,2.5a44.74,44.74,0,0,1-2.87,9.22,42.82,42.82,0,0,1-4.22,7.54,45.4,45.4,0,0,1-4.64,5.64,49,49,0,0,1-4.17,3.78l-1.66,1.27-1.27.87-1.06.72,1-.75,1.25-.9,1.61-1.31a47.45,47.45,0,0,0,4.06-3.87,44.3,44.3,0,0,0,4.44-5.72,41.44,41.44,0,0,0,4-7.54,44.19,44.19,0,0,0,2.58-9.11c.11-.82.26-1.63.34-2.46s.13-1.65.2-2.49,0-1.71,0-2.58-.1-1.7-.15-2.55-.06-1.72-.21-2.57-.29-1.71-.44-2.57l-.21-1.28-.35-1.26-.69-2.52c-.24-.83-.61-1.63-.91-2.45a25.2,25.2,0,0,0-1-2.4,43.2,43.2,0,0,0-2.46-4.55c-.46-.72-.92-1.44-1.37-2.16s-1-1.34-1.55-2a38,38,0,0,0-3.29-3.72,17.21,17.21,0,0,0-1.76-1.66l-1.8-1.57c-1.23-1-2.51-1.82-3.71-2.7s-2.55-1.5-3.78-2.17l-3.69-1.69-3.54-1.22c-1.12-.37-2.24-.56-3.26-.83-.52-.12-1-.25-1.49-.35l-1.4-.19-2.44-.34c-1.53-.12-2.79-.12-3.62-.16l-1.28-.05Z" transform="translate(0)"/></svg>